<svg id="svg" xmlns="http://www.w3.org/2000/svg" xmlns:xlink="http://www.w3.org/1999/xlink" width="400" height="91.08159392789373" viewBox="0, 0, 400,91.08159392789373"><g id="svgg"><path id="path0" d="M172.715 7.667 C 172.636 7.968,172.488 8.000,171.147 8.000 C 169.679 8.000,169.667 8.003,169.667 8.417 C 169.667 8.829,169.651 8.833,168.234 8.833 C 166.942 8.833,166.794 8.866,166.715 9.167 C 166.645 9.436,166.488 9.500,165.897 9.500 C 165.229 9.500,165.167 9.536,165.167 9.917 C 165.167 10.299,165.106 10.333,164.417 10.333 C 163.778 10.333,163.667 10.383,163.667 10.667 C 163.667 10.951,163.556 11.000,162.917 11.000 C 162.228 11.000,162.167 11.034,162.167 11.417 C 162.167 11.801,162.107 11.833,161.401 11.833 C 160.785 11.833,160.619 11.896,160.551 12.155 C 160.494 12.375,160.263 12.511,159.817 12.586 C 159.326 12.669,159.167 12.774,159.167 13.015 C 159.167 13.243,159.049 13.333,158.750 13.333 C 158.454 13.333,158.333 13.424,158.333 13.645 C 158.333 13.882,158.168 13.984,157.650 14.067 C 157.173 14.143,156.941 14.272,156.883 14.495 C 156.837 14.671,156.638 14.838,156.441 14.866 C 156.217 14.898,156.063 15.057,156.030 15.292 C 155.996 15.533,155.862 15.667,155.655 15.667 C 155.444 15.667,155.333 15.782,155.333 16.000 C 155.333 16.244,155.222 16.333,154.917 16.333 C 154.583 16.333,154.500 16.417,154.500 16.750 C 154.500 17.083,154.417 17.167,154.083 17.167 C 153.778 17.167,153.667 17.256,153.667 17.500 C 153.667 17.722,153.556 17.833,153.333 17.833 C 153.089 17.833,153.000 17.944,153.000 18.250 C 153.000 18.583,152.917 18.667,152.583 18.667 C 152.278 18.667,152.167 18.756,152.167 19.000 C 152.167 19.222,152.056 19.333,151.833 19.333 C 151.589 19.333,151.500 19.444,151.500 19.750 C 151.500 20.083,151.417 20.167,151.083 20.167 C 150.786 20.167,150.667 20.257,150.667 20.481 C 150.667 20.654,150.518 20.833,150.333 20.882 C 150.150 20.930,150.000 21.108,150.000 21.278 C 150.000 21.448,149.831 21.662,149.625 21.752 C 149.349 21.873,149.236 22.082,149.198 22.542 C 149.158 23.031,149.077 23.167,148.823 23.167 C 148.590 23.167,148.500 23.282,148.500 23.583 C 148.500 23.917,148.417 24.000,148.083 24.000 C 147.701 24.000,147.667 24.061,147.667 24.750 C 147.667 25.439,147.633 25.500,147.250 25.500 C 146.922 25.500,146.833 25.585,146.833 25.897 C 146.833 26.154,146.716 26.325,146.500 26.382 C 146.235 26.451,146.167 26.609,146.167 27.151 C 146.167 27.707,146.109 27.833,145.854 27.833 C 145.518 27.833,145.333 28.403,145.333 29.438 C 145.333 29.889,145.267 30.000,145.000 30.000 C 144.716 30.000,144.667 30.111,144.667 30.750 C 144.667 31.375,144.614 31.500,144.351 31.500 C 143.947 31.500,143.833 31.813,143.833 32.930 C 143.833 33.722,143.792 33.833,143.500 33.833 C 143.192 33.833,143.167 33.944,143.167 35.322 C 143.167 36.738,143.149 36.813,142.792 36.863 C 142.421 36.916,142.416 36.950,142.371 39.875 C 142.328 42.695,142.310 42.833,141.996 42.833 C 141.684 42.833,141.667 42.953,141.667 45.083 C 141.667 47.222,141.683 47.333,142.000 47.333 C 142.321 47.333,142.333 47.444,142.333 50.330 L 142.333 53.327 142.750 53.432 C 143.155 53.533,143.167 53.576,143.167 55.018 C 143.167 56.377,143.194 56.500,143.492 56.500 C 143.779 56.500,143.824 56.637,143.867 57.625 C 143.912 58.647,143.951 58.755,144.292 58.803 C 144.636 58.852,144.667 58.944,144.667 59.928 C 144.667 60.889,144.701 61.000,145.000 61.000 C 145.284 61.000,145.333 61.111,145.333 61.750 C 145.333 62.439,145.367 62.500,145.750 62.500 C 146.133 62.500,146.167 62.561,146.167 63.250 C 146.167 63.881,146.218 64.000,146.490 64.000 C 146.752 64.000,146.824 64.136,146.865 64.708 C 146.905 65.255,147.002 65.454,147.292 65.581 C 147.571 65.704,147.667 65.885,147.667 66.294 C 147.667 66.725,147.756 66.875,148.083 67.000 C 148.338 67.097,148.500 67.289,148.500 67.496 C 148.500 67.722,148.610 67.833,148.833 67.833 C 149.078 67.833,149.167 67.944,149.167 68.250 C 149.167 68.583,149.250 68.667,149.583 68.667 C 149.947 68.667,150.000 68.740,150.000 69.241 C 150.000 69.604,150.111 69.894,150.303 70.032 C 150.469 70.152,150.654 70.381,150.714 70.542 C 150.774 70.702,150.975 70.833,151.161 70.833 C 151.411 70.833,151.500 70.942,151.500 71.250 C 151.500 71.547,151.590 71.667,151.814 71.667 C 151.991 71.667,152.167 71.817,152.218 72.012 C 152.268 72.203,152.464 72.399,152.654 72.448 C 152.850 72.500,153.000 72.675,153.000 72.853 C 153.000 73.049,153.118 73.167,153.314 73.167 C 153.491 73.167,153.667 73.317,153.718 73.512 C 153.768 73.703,153.957 73.897,154.139 73.944 C 154.321 73.992,154.507 74.174,154.552 74.349 C 154.601 74.534,154.781 74.667,154.984 74.667 C 155.219 74.667,155.333 74.773,155.333 74.990 C 155.333 75.245,155.491 75.337,156.083 75.425 C 156.667 75.513,156.833 75.607,156.833 75.852 C 156.833 76.050,156.951 76.167,157.149 76.167 C 157.346 76.167,157.503 76.323,157.568 76.583 C 157.658 76.940,157.768 77.000,158.337 77.000 C 158.889 77.000,159.000 77.056,159.000 77.333 C 159.000 77.575,159.111 77.667,159.405 77.667 C 159.698 77.667,159.825 77.770,159.863 78.042 C 159.908 78.353,160.036 78.425,160.625 78.468 C 161.198 78.509,161.333 78.581,161.333 78.843 C 161.333 79.116,161.452 79.167,162.083 79.167 C 162.772 79.167,162.833 79.201,162.833 79.583 C 162.833 79.965,162.895 80.000,163.572 80.000 C 164.211 80.000,164.317 80.051,164.363 80.375 C 164.408 80.686,164.536 80.759,165.117 80.801 C 165.637 80.839,165.843 80.935,165.920 81.176 C 166.007 81.452,166.179 81.500,167.083 81.500 C 168.056 81.500,168.148 81.531,168.197 81.875 C 168.245 82.216,168.353 82.255,169.375 82.299 C 170.363 82.343,170.500 82.388,170.500 82.674 C 170.500 82.978,170.626 83.000,172.349 83.000 C 174.023 83.000,174.206 83.030,174.280 83.315 C 174.405 83.792,174.914 83.833,180.591 83.833 C 186.105 83.833,186.333 83.813,186.333 83.316 C 186.333 83.024,186.481 83.000,188.250 83.000 C 190.056 83.000,190.167 82.981,190.167 82.667 C 190.167 82.363,190.278 82.333,191.403 82.333 C 192.856 82.333,193.167 82.242,193.167 81.816 C 193.167 81.540,193.297 81.500,194.182 81.500 C 195.049 81.500,195.210 81.452,195.283 81.175 C 195.347 80.931,195.539 80.838,196.059 80.800 C 196.583 80.762,196.789 80.661,196.911 80.383 C 197.032 80.107,197.239 80.003,197.744 79.966 C 198.296 79.926,198.426 79.850,198.470 79.542 C 198.515 79.227,198.626 79.167,199.167 79.167 C 199.657 79.167,199.835 79.090,199.913 78.844 C 199.970 78.666,200.181 78.498,200.383 78.469 C 200.616 78.436,200.769 78.280,200.803 78.042 C 200.848 77.725,200.959 77.667,201.512 77.667 C 202.056 77.667,202.167 77.610,202.167 77.333 C 202.167 77.089,202.278 77.000,202.583 77.000 C 202.917 77.000,203.000 76.917,203.000 76.583 C 203.000 76.272,203.088 76.167,203.349 76.167 C 203.558 76.167,203.733 76.033,203.785 75.833 C 203.833 75.649,204.012 75.500,204.186 75.500 C 204.410 75.500,204.500 75.380,204.500 75.083 C 204.500 74.750,204.583 74.667,204.917 74.667 C 205.222 74.667,205.333 74.578,205.333 74.333 C 205.333 74.111,205.444 74.000,205.667 74.000 C 205.911 74.000,206.000 73.889,206.000 73.583 C 206.000 73.250,206.083 73.167,206.417 73.167 C 206.717 73.167,206.833 73.077,206.833 72.845 C 206.833 72.638,206.967 72.504,207.208 72.470 C 207.449 72.436,207.602 72.283,207.637 72.042 C 207.671 71.801,207.805 71.667,208.012 71.667 C 208.244 71.667,208.333 71.551,208.333 71.250 C 208.333 70.942,208.422 70.833,208.672 70.833 C 208.858 70.833,209.059 70.702,209.119 70.542 C 209.179 70.381,209.364 70.152,209.531 70.032 C 209.720 69.896,209.833 69.604,209.833 69.252 C 209.833 68.796,209.904 68.680,210.208 68.637 C 210.443 68.603,210.602 68.449,210.634 68.225 C 210.662 68.028,210.831 67.829,211.009 67.783 C 211.264 67.716,211.333 67.551,211.333 67.016 C 211.333 66.399,211.373 66.333,211.750 66.333 C 212.133 66.333,212.167 66.272,212.167 65.583 C 212.167 64.944,212.216 64.833,212.500 64.833 C 212.784 64.833,212.833 64.722,212.833 64.083 C 212.833 63.394,212.867 63.333,213.250 63.333 C 213.633 63.333,213.667 63.272,213.667 62.583 C 213.667 61.959,213.719 61.833,213.982 61.833 C 214.387 61.833,214.500 61.521,214.500 60.403 C 214.500 59.611,214.541 59.500,214.833 59.500 C 215.132 59.500,215.167 59.389,215.167 58.436 C 215.167 57.513,215.211 57.361,215.499 57.285 C 215.910 57.178,216.069 56.797,215.931 56.250 L 215.827 55.833 207.580 55.833 L 199.333 55.833 199.333 56.583 C 199.333 57.272,199.299 57.333,198.917 57.333 C 198.534 57.333,198.500 57.394,198.500 58.083 C 198.500 58.722,198.451 58.833,198.167 58.833 C 197.948 58.833,197.833 58.944,197.833 59.155 C 197.833 59.362,197.699 59.496,197.458 59.530 C 197.220 59.564,197.064 59.717,197.031 59.950 C 197.002 60.152,196.834 60.364,196.656 60.420 C 196.409 60.498,196.333 60.676,196.333 61.178 C 196.333 61.766,196.290 61.833,195.917 61.833 C 195.583 61.833,195.500 61.917,195.500 62.250 C 195.500 62.583,195.417 62.667,195.083 62.667 C 194.778 62.667,194.667 62.756,194.667 63.000 C 194.667 63.222,194.556 63.333,194.333 63.333 C 194.089 63.333,194.000 63.444,194.000 63.750 C 194.000 64.127,193.934 64.167,193.318 64.167 C 192.786 64.167,192.617 64.237,192.552 64.486 C 192.506 64.661,192.288 64.850,192.068 64.906 C 191.813 64.970,191.667 65.127,191.667 65.337 C 191.667 65.603,191.554 65.667,191.085 65.667 C 190.683 65.667,190.438 65.770,190.295 66.000 C 190.180 66.183,189.955 66.333,189.793 66.333 C 189.593 66.333,189.500 66.463,189.500 66.742 C 189.500 67.131,189.445 67.154,188.375 67.201 C 187.353 67.245,187.245 67.284,187.197 67.625 C 187.147 67.973,187.059 68.000,185.988 68.000 C 184.944 68.000,184.833 68.032,184.833 68.333 C 184.833 68.658,184.722 68.667,180.667 68.667 C 176.611 68.667,176.500 68.658,176.500 68.333 C 176.500 68.025,176.389 68.000,175.012 68.000 C 173.595 68.000,173.521 67.982,173.470 67.625 C 173.424 67.305,173.301 67.243,172.625 67.199 C 171.989 67.158,171.833 67.089,171.833 66.845 C 171.833 66.519,171.251 66.333,170.229 66.333 C 169.778 66.333,169.667 66.267,169.667 66.000 C 169.667 65.717,169.556 65.667,168.928 65.667 C 168.289 65.667,168.183 65.616,168.137 65.292 C 168.102 65.051,167.949 64.898,167.708 64.863 C 167.467 64.829,167.333 64.695,167.333 64.488 C 167.333 64.276,167.218 64.167,166.996 64.167 C 166.789 64.167,166.597 64.005,166.500 63.750 C 166.372 63.414,166.227 63.333,165.754 63.333 C 165.278 63.333,165.167 63.270,165.167 63.000 C 165.167 62.756,165.056 62.667,164.750 62.667 C 164.417 62.667,164.333 62.583,164.333 62.250 C 164.333 61.917,164.250 61.833,163.917 61.833 C 163.611 61.833,163.500 61.744,163.500 61.500 C 163.500 61.278,163.389 61.167,163.167 61.167 C 162.922 61.167,162.833 61.056,162.833 60.750 C 162.833 60.417,162.750 60.333,162.417 60.333 C 162.040 60.333,162.000 60.268,162.000 59.651 C 162.000 59.116,161.930 58.951,161.676 58.884 C 161.498 58.837,161.329 58.638,161.301 58.441 C 161.269 58.217,161.110 58.063,160.875 58.030 C 160.560 57.985,160.500 57.874,160.500 57.333 C 160.500 56.836,160.424 56.665,160.167 56.583 C 159.936 56.510,159.833 56.331,159.833 56.002 C 159.833 55.310,159.673 55.000,159.316 55.000 C 159.053 55.000,159.000 54.875,159.000 54.250 C 159.000 53.617,158.949 53.500,158.675 53.500 C 158.392 53.500,158.343 53.363,158.300 52.458 C 158.257 51.563,158.197 51.394,157.875 51.252 C 157.525 51.099,157.500 50.984,157.500 49.557 C 157.500 47.807,157.423 47.500,156.982 47.500 C 156.442 47.500,156.501 42.213,157.042 42.137 C 157.395 42.086,157.419 41.996,157.464 40.552 C 157.509 39.116,157.535 39.018,157.881 38.969 C 158.211 38.922,158.255 38.805,158.300 37.875 C 158.343 36.970,158.392 36.833,158.675 36.833 C 158.948 36.833,159.000 36.716,159.000 36.095 C 159.000 35.456,159.051 35.349,159.375 35.303 C 159.695 35.258,159.757 35.134,159.801 34.458 C 159.843 33.803,159.907 33.667,160.176 33.667 C 160.385 33.667,160.500 33.553,160.500 33.345 C 160.500 33.138,160.634 33.004,160.875 32.970 C 161.187 32.926,161.259 32.797,161.301 32.208 C 161.343 31.636,161.415 31.500,161.676 31.500 C 161.910 31.500,162.000 31.385,162.000 31.083 C 162.000 30.750,162.083 30.667,162.417 30.667 C 162.714 30.667,162.833 30.576,162.833 30.353 C 162.833 30.179,162.982 30.000,163.167 29.952 C 163.366 29.900,163.500 29.724,163.500 29.516 C 163.500 29.255,163.605 29.167,163.917 29.167 C 164.214 29.167,164.333 29.076,164.333 28.853 C 164.333 28.675,164.484 28.500,164.679 28.448 C 164.869 28.399,165.065 28.203,165.115 28.012 C 165.166 27.817,165.342 27.667,165.519 27.667 C 165.718 27.667,165.833 27.549,165.833 27.345 C 165.833 27.138,165.967 27.004,166.208 26.970 C 166.449 26.936,166.602 26.783,166.637 26.542 C 166.680 26.235,166.795 26.167,167.266 26.167 C 167.727 26.167,167.873 26.083,168.000 25.750 C 168.097 25.495,168.289 25.333,168.496 25.333 C 168.722 25.333,168.833 25.224,168.833 25.000 C 168.833 24.716,168.944 24.667,169.583 24.667 C 170.272 24.667,170.333 24.633,170.333 24.250 C 170.333 23.849,170.373 23.833,171.405 23.833 C 172.331 23.833,172.492 23.788,172.583 23.500 C 172.661 23.255,172.836 23.167,173.240 23.167 C 174.207 23.167,174.800 22.980,174.886 22.649 C 174.962 22.359,175.150 22.333,177.167 22.333 C 179.224 22.333,179.370 22.312,179.452 22.000 C 179.528 21.708,179.679 21.667,180.667 21.667 C 181.654 21.667,181.805 21.708,181.882 22.000 C 181.962 22.308,182.109 22.333,183.818 22.333 C 185.363 22.333,185.667 22.375,185.667 22.587 C 185.667 22.919,186.340 23.167,187.241 23.167 C 187.821 23.167,187.978 23.232,188.048 23.500 C 188.118 23.765,188.276 23.833,188.818 23.833 C 189.376 23.833,189.500 23.891,189.500 24.149 C 189.500 24.508,189.810 24.667,190.514 24.667 C 190.889 24.667,191.000 24.743,191.000 25.000 C 191.000 25.284,191.111 25.333,191.750 25.333 C 192.439 25.333,192.500 25.367,192.500 25.750 C 192.500 26.051,192.590 26.167,192.822 26.167 C 193.029 26.167,193.163 26.301,193.197 26.542 C 193.231 26.783,193.384 26.936,193.625 26.970 C 193.866 27.004,194.000 27.138,194.000 27.345 C 194.000 27.549,194.115 27.667,194.314 27.667 C 194.491 27.667,194.667 27.817,194.718 28.012 C 194.768 28.203,194.964 28.399,195.154 28.448 C 195.350 28.500,195.500 28.675,195.500 28.853 C 195.500 29.076,195.620 29.167,195.917 29.167 C 196.250 29.167,196.333 29.250,196.333 29.583 C 196.333 29.889,196.422 30.000,196.667 30.000 C 196.889 30.000,197.000 30.111,197.000 30.333 C 197.000 30.578,197.111 30.667,197.417 30.667 C 197.799 30.667,197.833 30.728,197.833 31.417 C 197.833 32.056,197.883 32.167,198.167 32.167 C 198.424 32.167,198.500 32.278,198.500 32.653 C 198.500 33.356,198.659 33.667,199.018 33.667 C 199.243 33.667,199.333 33.786,199.333 34.083 C 199.333 34.384,199.423 34.500,199.655 34.500 C 199.862 34.500,199.996 34.634,200.030 34.875 L 200.083 35.250 207.250 35.299 C 215.871 35.358,215.770 35.367,215.912 34.526 C 216.036 33.791,215.781 33.000,215.421 33.000 C 215.219 33.000,215.167 32.776,215.167 31.917 C 215.167 30.955,215.130 30.833,214.842 30.833 C 214.574 30.833,214.510 30.697,214.467 30.042 C 214.424 29.366,214.362 29.242,214.042 29.197 C 213.712 29.150,213.667 29.047,213.667 28.335 C 213.667 27.313,213.545 27.000,213.149 27.000 C 212.891 27.000,212.833 26.876,212.833 26.318 C 212.833 25.776,212.765 25.618,212.500 25.548 C 212.284 25.492,212.167 25.321,212.167 25.064 C 212.167 24.751,212.078 24.667,211.750 24.667 C 211.367 24.667,211.333 24.606,211.333 23.917 C 211.333 23.295,211.280 23.167,211.021 23.167 C 210.785 23.167,210.683 23.001,210.600 22.483 C 210.522 21.998,210.395 21.775,210.162 21.714 C 209.975 21.665,209.833 21.486,209.833 21.298 C 209.833 21.109,209.692 20.932,209.500 20.882 C 209.316 20.833,209.167 20.654,209.167 20.481 C 209.167 20.257,209.047 20.167,208.750 20.167 C 208.375 20.167,208.333 20.100,208.333 19.496 C 208.333 18.944,208.263 18.799,207.939 18.675 C 207.723 18.593,207.505 18.370,207.455 18.179 C 207.405 17.989,207.250 17.833,207.110 17.833 C 206.970 17.833,206.808 17.683,206.750 17.500 C 206.692 17.317,206.499 17.167,206.322 17.167 C 206.115 17.167,206.000 17.052,206.000 16.845 C 206.000 16.667,205.854 16.476,205.675 16.419 C 205.497 16.363,205.304 16.170,205.247 15.991 C 205.191 15.813,204.999 15.667,204.822 15.667 C 204.617 15.667,204.500 15.552,204.500 15.351 C 204.500 14.992,204.190 14.833,203.486 14.833 C 203.079 14.833,203.000 14.766,203.000 14.417 C 203.000 14.120,202.910 14.000,202.686 14.000 C 202.512 14.000,202.333 13.851,202.285 13.667 C 202.235 13.475,202.058 13.333,201.868 13.333 C 201.681 13.333,201.502 13.192,201.453 13.005 C 201.392 12.771,201.169 12.644,200.683 12.567 C 200.166 12.484,200.000 12.382,200.000 12.145 C 200.000 11.924,199.879 11.833,199.583 11.833 C 199.282 11.833,199.167 11.744,199.167 11.510 C 199.167 11.256,199.010 11.164,198.432 11.077 C 197.906 10.998,197.673 10.876,197.614 10.650 C 197.551 10.408,197.380 10.333,196.888 10.333 C 196.382 10.333,196.211 10.254,196.081 9.958 C 195.942 9.642,195.767 9.576,194.958 9.533 C 194.136 9.490,194.000 9.437,194.000 9.158 C 194.000 8.867,193.879 8.833,192.833 8.833 C 191.700 8.833,191.667 8.821,191.667 8.417 C 191.667 8.003,191.654 8.000,190.186 8.000 C 188.846 8.000,188.697 7.968,188.618 7.667 C 188.481 7.142,172.852 7.142,172.715 7.667 M336.867 8.200 C 336.757 8.310,336.667 8.497,336.667 8.617 C 336.667 8.789,335.808 8.833,332.500 8.833 L 328.333 8.833 328.333 43.727 L 328.333 78.620 327.917 78.541 C 327.572 78.475,327.500 78.366,327.500 77.907 C 327.500 77.562,327.385 77.270,327.197 77.134 C 327.031 77.015,326.846 76.785,326.786 76.625 C 326.726 76.465,326.525 76.333,326.339 76.333 C 326.089 76.333,326.000 76.224,326.000 75.917 C 326.000 75.583,325.917 75.500,325.583 75.500 C 325.207 75.500,325.167 75.434,325.167 74.818 C 325.167 74.276,325.098 74.118,324.833 74.048 C 324.650 74.000,324.500 73.821,324.500 73.650 C 324.500 73.458,324.341 73.300,324.083 73.235 C 323.823 73.170,323.667 73.013,323.667 72.815 C 323.667 72.618,323.550 72.500,323.355 72.500 C 323.118 72.500,323.016 72.334,322.933 71.817 C 322.856 71.331,322.729 71.108,322.495 71.047 C 322.284 70.992,322.167 70.819,322.167 70.564 C 322.167 70.278,322.073 70.167,321.833 70.167 C 321.611 70.167,321.500 70.056,321.500 69.833 C 321.500 69.589,321.389 69.500,321.083 69.500 C 320.750 69.500,320.667 69.417,320.667 69.083 C 320.667 68.778,320.578 68.667,320.333 68.667 C 320.076 68.667,320.000 68.556,320.000 68.180 C 320.000 67.483,319.842 67.167,319.494 67.167 C 319.305 67.167,319.170 67.024,319.137 66.792 C 319.102 66.551,318.949 66.398,318.708 66.363 C 318.467 66.329,318.333 66.195,318.333 65.988 C 318.333 65.781,318.218 65.667,318.010 65.667 C 317.748 65.667,317.676 65.531,317.635 64.958 C 317.592 64.369,317.520 64.241,317.208 64.197 C 316.937 64.158,316.833 64.032,316.833 63.738 C 316.833 63.444,316.742 63.333,316.500 63.333 C 316.278 63.333,316.167 63.222,316.167 63.000 C 316.167 62.756,316.056 62.667,315.750 62.667 C 315.367 62.667,315.333 62.606,315.333 61.917 C 315.333 61.287,315.282 61.167,315.012 61.167 C 314.805 61.167,314.671 61.033,314.637 60.792 C 314.602 60.551,314.449 60.398,314.208 60.363 C 313.937 60.325,313.833 60.198,313.833 59.905 C 313.833 59.617,313.741 59.500,313.515 59.500 C 313.273 59.500,313.169 59.339,313.083 58.833 C 312.998 58.327,312.894 58.167,312.652 58.167 C 312.423 58.167,312.333 58.049,312.333 57.750 C 312.333 57.417,312.250 57.333,311.917 57.333 C 311.583 57.333,311.500 57.250,311.500 56.917 C 311.500 56.611,311.411 56.500,311.167 56.500 C 310.922 56.500,310.833 56.389,310.833 56.083 C 310.833 55.778,310.922 55.667,311.167 55.667 C 311.389 55.667,311.500 55.556,311.500 55.333 C 311.500 55.089,311.611 55.000,311.917 55.000 C 312.250 55.000,312.333 54.917,312.333 54.583 C 312.333 54.201,312.394 54.167,313.083 54.167 C 313.713 54.167,313.833 54.115,313.833 53.845 C 313.833 53.638,313.967 53.504,314.208 53.470 C 314.449 53.436,314.602 53.283,314.637 53.042 C 314.671 52.801,314.805 52.667,315.012 52.667 C 315.218 52.667,315.333 52.552,315.333 52.345 C 315.333 52.138,315.467 52.004,315.708 51.970 C 315.949 51.936,316.102 51.783,316.137 51.542 C 316.171 51.301,316.305 51.167,316.512 51.167 C 316.722 51.167,316.833 51.052,316.833 50.833 C 316.833 50.589,316.944 50.500,317.250 50.500 C 317.583 50.500,317.667 50.417,317.667 50.083 C 317.667 49.778,317.756 49.667,318.000 49.667 C 318.244 49.667,318.333 49.556,318.333 49.250 C 318.333 48.917,318.417 48.833,318.750 48.833 C 319.133 48.833,319.167 48.772,319.167 48.083 C 319.167 47.394,319.201 47.333,319.583 47.333 C 319.870 47.333,320.000 47.242,320.000 47.040 C 320.000 46.879,320.150 46.653,320.333 46.539 C 320.576 46.387,320.667 46.150,320.667 45.665 C 320.667 45.126,320.726 45.000,320.979 45.000 C 321.315 45.000,321.500 44.431,321.500 43.396 C 321.500 42.944,321.566 42.833,321.833 42.833 C 322.142 42.833,322.167 42.722,322.167 41.333 C 322.167 39.949,322.192 39.833,322.497 39.833 C 322.994 39.833,323.014 39.562,322.963 33.500 L 322.917 27.917 322.542 27.752 C 322.194 27.600,322.167 27.482,322.167 26.127 C 322.167 24.790,322.139 24.667,321.841 24.667 C 321.559 24.667,321.509 24.530,321.466 23.625 C 321.422 22.689,321.378 22.578,321.042 22.530 C 320.716 22.484,320.667 22.378,320.667 21.723 C 320.667 21.116,320.603 20.952,320.342 20.884 C 320.098 20.820,320.005 20.628,319.967 20.108 C 319.926 19.542,319.850 19.407,319.551 19.365 C 319.262 19.323,319.175 19.184,319.134 18.698 C 319.097 18.249,318.982 18.039,318.708 17.919 C 318.502 17.828,318.333 17.622,318.333 17.460 C 318.333 17.278,318.207 17.167,318.000 17.167 C 317.756 17.167,317.667 17.056,317.667 16.750 C 317.667 16.417,317.583 16.333,317.250 16.333 C 316.944 16.333,316.833 16.244,316.833 16.000 C 316.833 15.782,316.722 15.667,316.512 15.667 C 316.305 15.667,316.171 15.533,316.137 15.292 C 316.103 15.054,315.949 14.898,315.719 14.865 C 315.491 14.832,315.334 14.675,315.302 14.448 C 315.270 14.223,315.113 14.064,314.892 14.032 C 314.695 14.004,314.496 13.835,314.449 13.657 C 314.386 13.414,314.219 13.333,313.777 13.333 C 313.295 13.333,313.180 13.266,313.137 12.958 C 313.103 12.720,312.949 12.564,312.716 12.531 C 312.514 12.502,312.303 12.334,312.247 12.156 C 312.169 11.911,311.991 11.833,311.508 11.833 C 311.020 11.833,310.853 11.759,310.788 11.511 C 310.731 11.294,310.494 11.150,310.060 11.069 C 309.706 11.003,309.319 10.811,309.199 10.641 C 309.029 10.401,308.765 10.333,308.002 10.333 C 307.114 10.333,307.018 10.299,306.970 9.958 C 306.920 9.606,306.827 9.580,305.458 9.535 C 304.137 9.492,304.000 9.456,304.000 9.160 C 304.000 8.838,303.786 8.833,288.417 8.833 L 272.833 8.833 272.833 42.167 C 272.833 75.117,272.830 75.500,272.508 75.500 C 272.225 75.500,272.176 75.363,272.133 74.458 C 272.090 73.563,272.031 73.394,271.708 73.252 C 271.377 73.107,271.333 72.966,271.333 72.044 C 271.333 71.111,271.298 71.000,271.000 71.000 C 270.708 71.000,270.667 70.889,270.667 70.097 C 270.667 68.979,270.553 68.667,270.149 68.667 C 269.874 68.667,269.833 68.537,269.833 67.663 C 269.833 66.745,269.797 66.645,269.417 66.500 C 269.057 66.363,269.000 66.239,269.000 65.587 C 269.000 64.944,268.951 64.833,268.667 64.833 C 268.368 64.833,268.333 64.722,268.333 63.750 C 268.333 62.706,268.318 62.667,267.917 62.667 C 267.512 62.667,267.500 62.633,267.500 61.500 C 267.500 60.454,267.466 60.333,267.175 60.333 C 266.892 60.333,266.843 60.197,266.800 59.292 C 266.757 58.396,266.697 58.227,266.375 58.085 C 266.048 57.942,266.000 57.797,266.000 56.945 C 266.000 56.109,265.952 55.956,265.667 55.882 C 265.398 55.811,265.333 55.654,265.333 55.075 C 265.333 54.173,265.086 53.500,264.754 53.500 C 264.564 53.500,264.500 53.311,264.500 52.750 C 264.500 52.117,264.449 52.000,264.175 52.000 C 263.892 52.000,263.843 51.863,263.800 50.958 C 263.757 50.069,263.696 49.893,263.382 49.755 C 263.070 49.618,263.007 49.440,262.965 48.588 C 262.922 47.690,262.877 47.578,262.542 47.530 C 262.194 47.481,262.167 47.393,262.167 46.322 C 262.167 45.278,262.135 45.167,261.833 45.167 C 261.537 45.167,261.500 45.056,261.500 44.163 C 261.500 43.245,261.464 43.145,261.083 43.000 C 260.724 42.863,260.667 42.739,260.667 42.087 C 260.667 41.444,260.618 41.333,260.333 41.333 C 260.034 41.333,260.000 41.222,260.000 40.250 C 260.000 39.206,259.985 39.167,259.583 39.167 C 259.179 39.167,259.167 39.133,259.167 38.000 C 259.167 36.954,259.133 36.833,258.841 36.833 C 258.559 36.833,258.509 36.697,258.466 35.792 C 258.424 34.896,258.364 34.727,258.042 34.585 C 257.710 34.440,257.667 34.300,257.667 33.377 C 257.667 32.444,257.631 32.333,257.333 32.333 C 257.050 32.333,257.000 32.222,257.000 31.594 C 257.000 30.675,256.755 30.000,256.421 30.000 C 256.231 30.000,256.167 29.811,256.167 29.250 C 256.167 28.561,256.133 28.500,255.750 28.500 C 255.345 28.500,255.333 28.467,255.333 27.333 C 255.333 26.278,255.302 26.167,255.000 26.167 C 254.701 26.167,254.667 26.056,254.667 25.083 C 254.667 24.039,254.652 24.000,254.250 24.000 C 253.848 24.000,253.833 23.962,253.833 22.901 C 253.833 21.942,253.791 21.791,253.500 21.715 C 253.214 21.640,253.167 21.488,253.167 20.643 C 253.167 19.746,253.130 19.644,252.750 19.500 C 252.368 19.355,252.333 19.256,252.333 18.322 C 252.333 17.442,252.288 17.290,252.000 17.215 C 251.731 17.145,251.667 16.988,251.667 16.397 C 251.667 15.729,251.631 15.667,251.250 15.667 C 250.845 15.667,250.833 15.633,250.833 14.500 C 250.833 13.454,250.800 13.333,250.508 13.333 C 250.225 13.333,250.176 13.197,250.133 12.292 C 250.090 11.396,250.031 11.227,249.708 11.085 C 249.377 10.940,249.333 10.800,249.333 9.877 L 249.333 8.833 241.750 8.833 C 234.623 8.833,234.167 8.851,234.167 9.127 C 234.167 9.288,234.017 9.513,233.833 9.628 C 233.561 9.798,233.500 10.017,233.500 10.823 C 233.500 11.720,233.466 11.815,233.125 11.863 C 232.789 11.911,232.745 12.023,232.701 12.941 C 232.660 13.794,232.597 13.979,232.326 14.050 C 232.044 14.124,232.000 14.284,232.000 15.234 C 232.000 16.295,231.986 16.333,231.583 16.333 C 231.179 16.333,231.167 16.367,231.167 17.488 C 231.167 18.559,231.139 18.647,230.792 18.697 C 230.482 18.741,230.408 18.870,230.366 19.441 C 230.328 19.961,230.235 20.153,229.991 20.217 C 229.711 20.291,229.667 20.452,229.667 21.401 C 229.667 22.368,229.629 22.500,229.351 22.500 C 228.955 22.500,228.833 22.813,228.833 23.828 C 228.833 24.488,228.775 24.643,228.500 24.715 C 228.210 24.791,228.167 24.942,228.167 25.889 C 228.167 26.890,228.137 26.981,227.792 27.030 C 227.456 27.078,227.412 27.190,227.368 28.108 C 227.327 28.960,227.264 29.146,226.993 29.217 C 226.711 29.291,226.667 29.451,226.667 30.401 C 226.667 31.462,226.652 31.500,226.250 31.500 C 225.868 31.500,225.833 31.562,225.833 32.239 C 225.833 32.831,225.767 32.998,225.500 33.083 C 225.213 33.175,225.167 33.336,225.167 34.250 C 225.167 35.223,225.136 35.315,224.792 35.363 C 224.451 35.412,224.412 35.520,224.368 36.531 C 224.323 37.535,224.282 37.651,223.951 37.698 C 223.623 37.744,223.578 37.863,223.534 38.792 C 223.491 39.697,223.441 39.833,223.159 39.833 C 222.867 39.833,222.833 39.954,222.833 40.988 C 222.833 42.059,222.806 42.147,222.458 42.197 C 222.148 42.241,222.075 42.370,222.033 42.941 C 221.995 43.461,221.902 43.653,221.658 43.717 C 221.378 43.791,221.333 43.952,221.333 44.901 C 221.333 45.864,221.295 46.000,221.021 46.000 C 220.687 46.000,220.500 46.569,220.500 47.585 C 220.500 47.988,220.414 48.150,220.167 48.215 C 219.876 48.291,219.833 48.442,219.833 49.401 C 219.833 50.462,219.819 50.500,219.417 50.500 C 219.012 50.500,219.000 50.533,219.000 51.667 C 219.000 52.722,218.968 52.833,218.667 52.833 C 218.368 52.833,218.333 52.944,218.333 53.917 C 218.333 54.961,218.318 55.000,217.917 55.000 C 217.528 55.000,217.500 55.056,217.500 55.833 C 217.500 56.537,217.451 56.667,217.188 56.667 C 216.852 56.667,216.667 57.236,216.667 58.271 C 216.667 58.722,216.601 58.833,216.333 58.833 C 216.032 58.833,216.000 58.944,216.000 60.000 C 216.000 61.034,215.964 61.167,215.684 61.167 C 215.287 61.167,215.167 61.479,215.167 62.514 C 215.167 63.222,215.121 63.333,214.833 63.333 C 214.532 63.333,214.500 63.444,214.500 64.488 C 214.500 65.559,214.473 65.647,214.125 65.697 C 213.784 65.745,213.745 65.853,213.701 66.875 C 213.657 67.863,213.612 68.000,213.326 68.000 C 213.051 68.000,213.000 68.117,213.000 68.750 C 213.000 69.375,212.947 69.500,212.684 69.500 C 212.288 69.500,212.167 69.813,212.167 70.836 C 212.167 71.498,212.106 71.663,211.833 71.750 C 211.546 71.841,211.500 72.002,211.500 72.928 C 211.500 73.960,211.485 74.000,211.083 74.000 C 210.679 74.000,210.667 74.034,210.667 75.155 C 210.667 76.226,210.639 76.314,210.292 76.363 C 209.955 76.411,209.912 76.523,209.867 77.458 C 209.824 78.363,209.775 78.500,209.492 78.500 C 209.201 78.500,209.167 78.620,209.167 79.647 C 209.167 80.654,209.126 80.805,208.833 80.882 C 208.581 80.948,208.500 81.109,208.500 81.547 C 208.500 82.348,208.340 82.333,217.271 82.333 L 225.000 82.333 225.000 81.917 C 225.000 81.583,225.083 81.500,225.417 81.500 C 225.821 81.500,225.833 81.467,225.833 80.333 C 225.833 79.278,225.865 79.167,226.167 79.167 C 226.451 79.167,226.500 79.056,226.500 78.417 C 226.500 77.792,226.553 77.667,226.816 77.667 C 227.209 77.667,227.333 77.354,227.333 76.359 C 227.333 75.710,227.396 75.551,227.708 75.415 C 228.031 75.273,228.090 75.104,228.133 74.208 C 228.176 73.303,228.225 73.167,228.508 73.167 C 228.800 73.167,228.833 73.046,228.833 72.000 C 228.833 70.867,228.845 70.833,229.250 70.833 C 229.556 70.833,229.667 70.744,229.667 70.500 C 229.667 70.170,229.778 70.167,241.417 70.167 C 253.056 70.167,253.167 70.170,253.167 70.500 C 253.167 70.744,253.278 70.833,253.583 70.833 C 253.967 70.833,254.000 70.893,254.000 71.599 C 254.000 72.218,254.062 72.381,254.326 72.450 C 254.597 72.521,254.660 72.706,254.701 73.559 C 254.745 74.477,254.789 74.589,255.125 74.637 C 255.465 74.685,255.500 74.780,255.500 75.669 C 255.500 76.447,255.566 76.694,255.821 76.873 C 256.024 77.015,256.162 77.340,256.196 77.757 C 256.240 78.294,256.320 78.427,256.625 78.470 C 256.970 78.519,257.000 78.610,257.000 79.611 C 257.000 80.558,257.043 80.709,257.333 80.785 C 257.581 80.850,257.667 81.012,257.667 81.416 C 257.667 82.379,256.967 82.339,272.685 82.293 L 287.250 82.250 287.293 70.542 L 287.336 58.833 290.751 58.833 C 294.056 58.833,294.167 58.844,294.167 59.167 C 294.167 59.411,294.278 59.500,294.583 59.500 C 294.960 59.500,295.000 59.566,295.000 60.182 C 295.000 60.724,295.068 60.882,295.333 60.952 C 295.549 61.008,295.667 61.179,295.667 61.436 C 295.667 61.749,295.755 61.833,296.083 61.833 C 296.389 61.833,296.500 61.922,296.500 62.167 C 296.500 62.389,296.611 62.500,296.833 62.500 C 297.117 62.500,297.167 62.611,297.167 63.250 C 297.167 63.939,297.201 64.000,297.583 64.000 C 297.917 64.000,298.000 64.083,298.000 64.417 C 298.000 64.717,298.090 64.833,298.322 64.833 C 298.529 64.833,298.663 64.967,298.697 65.208 C 298.731 65.449,298.884 65.602,299.125 65.637 C 299.440 65.681,299.500 65.793,299.500 66.334 C 299.500 66.819,299.578 67.002,299.815 67.078 C 299.989 67.133,300.169 67.325,300.216 67.506 C 300.267 67.700,300.444 67.833,300.651 67.833 C 300.912 67.833,301.000 67.938,301.000 68.250 C 301.000 68.583,301.083 68.667,301.417 68.667 C 301.799 68.667,301.833 68.728,301.833 69.417 C 301.833 70.056,301.883 70.167,302.167 70.167 C 302.389 70.167,302.500 70.278,302.500 70.500 C 302.500 70.744,302.611 70.833,302.917 70.833 C 303.250 70.833,303.333 70.917,303.333 71.250 C 303.333 71.551,303.423 71.667,303.657 71.667 C 303.919 71.667,303.991 71.802,304.032 72.375 C 304.075 72.964,304.147 73.092,304.458 73.137 C 304.706 73.172,304.833 73.304,304.833 73.527 C 304.833 73.724,304.972 73.901,305.167 73.952 C 305.351 74.000,305.500 74.179,305.500 74.353 C 305.500 74.576,305.620 74.667,305.917 74.667 C 306.299 74.667,306.333 74.728,306.333 75.417 C 306.333 76.047,306.385 76.167,306.655 76.167 C 306.862 76.167,306.996 76.301,307.030 76.542 C 307.064 76.783,307.217 76.936,307.458 76.970 C 307.699 77.004,307.833 77.138,307.833 77.345 C 307.833 77.577,307.949 77.667,308.250 77.667 C 308.633 77.667,308.667 77.728,308.667 78.417 C 308.667 79.056,308.716 79.167,309.000 79.167 C 309.244 79.167,309.333 79.278,309.333 79.583 C 309.333 79.917,309.417 80.000,309.750 80.000 C 310.127 80.000,310.167 80.066,310.167 80.682 C 310.167 81.224,310.235 81.382,310.500 81.452 C 310.683 81.500,310.833 81.644,310.833 81.774 C 310.833 82.311,311.815 82.333,334.914 82.333 C 358.911 82.333,358.667 82.339,358.667 81.816 C 358.667 81.522,358.819 81.500,360.849 81.500 C 362.875 81.500,363.037 81.477,363.116 81.174 C 363.189 80.898,363.373 80.840,364.309 80.799 C 365.313 80.755,365.422 80.715,365.470 80.375 C 365.519 80.031,365.610 80.000,366.595 80.000 C 367.627 80.000,367.667 79.985,367.667 79.583 C 367.667 79.179,367.700 79.167,368.833 79.167 C 369.889 79.167,370.000 79.135,370.000 78.833 C 370.000 78.549,370.111 78.500,370.750 78.500 C 371.439 78.500,371.500 78.466,371.500 78.083 C 371.500 77.701,371.561 77.667,372.250 77.667 C 372.889 77.667,373.000 77.617,373.000 77.333 C 373.000 77.049,373.111 77.000,373.750 77.000 C 374.439 77.000,374.500 76.966,374.500 76.583 C 374.500 76.250,374.583 76.167,374.917 76.167 C 375.218 76.167,375.333 76.077,375.333 75.843 C 375.333 75.581,375.469 75.509,376.042 75.468 C 376.631 75.425,376.759 75.353,376.803 75.042 C 376.842 74.770,376.968 74.667,377.262 74.667 C 377.549 74.667,377.667 74.574,377.667 74.348 C 377.667 74.106,377.827 74.002,378.333 73.917 C 378.839 73.831,379.000 73.727,379.000 73.485 C 379.000 73.257,379.117 73.167,379.417 73.167 C 379.714 73.167,379.833 73.077,379.833 72.851 C 379.833 72.654,379.989 72.497,380.250 72.432 C 380.519 72.364,380.667 72.210,380.667 71.997 C 380.667 71.778,380.779 71.667,381.000 71.667 C 381.244 71.667,381.333 71.556,381.333 71.250 C 381.333 70.917,381.417 70.833,381.750 70.833 C 382.056 70.833,382.167 70.744,382.167 70.500 C 382.167 70.312,382.278 70.167,382.421 70.167 C 382.561 70.167,382.742 69.989,382.825 69.773 C 382.907 69.556,383.130 69.338,383.321 69.288 C 383.599 69.216,383.667 69.066,383.667 68.527 C 383.667 67.959,383.724 67.848,384.042 67.803 C 384.276 67.770,384.436 67.616,384.468 67.392 C 384.496 67.195,384.665 66.996,384.843 66.949 C 385.086 66.886,385.167 66.719,385.167 66.277 C 385.167 65.795,385.234 65.680,385.542 65.637 C 385.862 65.591,385.924 65.467,385.967 64.792 C 386.010 64.136,386.074 64.000,386.342 64.000 C 386.616 64.000,386.667 63.882,386.667 63.250 C 386.667 62.561,386.701 62.500,387.083 62.500 C 387.466 62.500,387.500 62.439,387.500 61.750 C 387.500 61.111,387.549 61.000,387.833 61.000 C 388.132 61.000,388.167 60.889,388.167 59.928 C 388.167 58.944,388.197 58.852,388.542 58.803 C 388.882 58.755,388.921 58.647,388.966 57.625 C 389.004 56.765,389.073 56.500,389.262 56.500 C 389.670 56.500,389.833 55.740,389.833 53.834 C 389.833 52.169,389.860 52.014,390.167 51.917 C 390.685 51.752,390.691 38.583,390.172 38.418 C 389.877 38.325,389.840 38.135,389.797 36.532 C 389.753 34.875,389.724 34.739,389.381 34.588 C 389.051 34.443,389.007 34.286,388.964 33.088 C 388.921 31.884,388.879 31.734,388.542 31.585 C 388.237 31.452,388.167 31.287,388.167 30.710 C 388.167 30.111,388.115 30.000,387.833 30.000 C 387.534 30.000,387.500 29.889,387.500 28.920 C 387.500 27.907,387.474 27.833,387.083 27.735 C 386.730 27.646,386.667 27.534,386.667 26.993 C 386.667 26.516,386.588 26.331,386.354 26.257 C 386.144 26.190,386.006 25.935,385.933 25.478 C 385.856 24.997,385.728 24.775,385.495 24.714 C 385.315 24.666,385.167 24.487,385.167 24.314 C 385.167 24.117,385.049 24.000,384.852 24.000 C 384.607 24.000,384.513 23.834,384.425 23.250 C 384.337 22.658,384.245 22.500,383.990 22.500 C 383.756 22.500,383.667 22.384,383.667 22.083 C 383.667 21.783,383.577 21.667,383.345 21.667 C 383.138 21.667,383.004 21.533,382.970 21.292 C 382.936 21.051,382.783 20.898,382.542 20.863 C 382.301 20.829,382.167 20.695,382.167 20.488 C 382.167 20.256,382.051 20.167,381.750 20.167 C 381.417 20.167,381.333 20.083,381.333 19.750 C 381.333 19.444,381.244 19.333,381.000 19.333 C 380.778 19.333,380.667 19.222,380.667 19.000 C 380.667 18.756,380.556 18.667,380.250 18.667 C 379.917 18.667,379.833 18.583,379.833 18.250 C 379.833 17.944,379.744 17.833,379.500 17.833 C 379.278 17.833,379.167 17.722,379.167 17.500 C 379.167 17.256,379.056 17.167,378.750 17.167 C 378.417 17.167,378.333 17.083,378.333 16.750 C 378.333 16.417,378.250 16.333,377.917 16.333 C 377.611 16.333,377.500 16.244,377.500 16.000 C 377.500 15.723,377.389 15.667,376.845 15.667 C 376.292 15.667,376.182 15.608,376.137 15.292 C 376.103 15.057,375.949 14.898,375.725 14.866 C 375.528 14.838,375.330 14.671,375.284 14.495 C 375.226 14.274,374.995 14.143,374.531 14.069 C 374.072 13.996,373.837 13.864,373.780 13.648 C 373.717 13.405,373.544 13.333,373.027 13.333 C 372.459 13.333,372.348 13.276,372.303 12.958 C 372.259 12.648,372.130 12.575,371.559 12.533 C 371.039 12.495,370.847 12.402,370.783 12.158 C 370.714 11.896,370.551 11.833,369.932 11.833 C 369.295 11.833,369.167 11.781,369.167 11.521 C 369.167 11.187,368.598 11.000,367.582 11.000 C 367.179 11.000,367.016 10.914,366.952 10.667 C 366.876 10.377,366.724 10.333,365.805 10.333 C 364.866 10.333,364.727 10.291,364.581 9.958 C 364.427 9.608,364.301 9.580,362.625 9.536 C 360.971 9.492,360.833 9.464,360.833 9.161 C 360.833 8.842,360.692 8.833,355.579 8.833 L 350.325 8.833 350.167 8.417 L 350.008 8.000 343.537 8.000 C 338.727 8.000,337.015 8.051,336.867 8.200 M9.500 9.770 C 9.500 9.992,9.545 10.003,9.750 9.833 C 9.887 9.719,10.000 9.598,10.000 9.563 C 10.000 9.528,9.887 9.500,9.750 9.500 C 9.612 9.500,9.500 9.622,9.500 9.770 M68.000 16.247 L 68.000 22.994 68.375 23.085 C 68.581 23.135,71.450 23.155,74.750 23.130 L 80.750 23.083 80.794 16.292 L 80.837 9.500 74.419 9.500 L 68.000 9.500 68.000 16.247 M118.917 22.639 C 118.740 22.815,118.846 22.969,119.116 22.929 C 119.475 22.876,119.594 22.556,119.255 22.556 C 119.115 22.556,118.962 22.593,118.917 22.639 M298.048 23.500 C 298.129 23.808,298.276 23.833,299.984 23.833 L 301.833 23.833 301.833 24.250 C 301.833 24.633,301.894 24.667,302.583 24.667 C 303.222 24.667,303.333 24.716,303.333 25.000 C 303.333 25.218,303.444 25.333,303.655 25.333 C 303.862 25.333,303.996 25.467,304.030 25.708 C 304.063 25.943,304.217 26.102,304.441 26.134 C 304.638 26.162,304.837 26.331,304.884 26.509 C 304.931 26.688,305.083 26.833,305.223 26.833 C 305.363 26.833,305.501 27.002,305.530 27.208 C 305.564 27.449,305.717 27.602,305.958 27.637 C 306.230 27.675,306.333 27.802,306.333 28.095 C 306.333 28.389,306.425 28.500,306.667 28.500 C 306.944 28.500,307.000 28.611,307.000 29.156 C 307.000 29.999,307.256 30.667,307.579 30.667 C 308.066 30.667,307.947 36.794,307.458 36.863 C 307.147 36.908,307.075 37.036,307.032 37.617 C 306.995 38.137,306.898 38.343,306.657 38.420 C 306.410 38.498,306.333 38.675,306.333 39.166 C 306.333 39.707,306.273 39.819,305.958 39.863 C 305.717 39.898,305.564 40.051,305.530 40.292 C 305.496 40.533,305.362 40.667,305.155 40.667 C 304.951 40.667,304.833 40.782,304.833 40.981 C 304.833 41.226,304.667 41.320,304.083 41.408 C 303.491 41.497,303.333 41.588,303.333 41.844 C 303.333 42.077,303.218 42.167,302.917 42.167 C 302.615 42.167,302.500 42.256,302.500 42.492 C 302.500 42.775,302.363 42.824,301.458 42.867 C 300.563 42.910,300.394 42.969,300.252 43.292 L 300.088 43.667 293.710 43.667 L 287.333 43.667 287.333 33.769 C 287.333 24.012,287.338 23.871,287.667 23.785 C 287.850 23.737,288.000 23.578,288.000 23.432 C 288.000 22.969,297.927 23.036,298.048 23.500 M354.167 23.500 C 354.167 23.817,354.278 23.833,356.405 23.833 C 358.599 23.833,358.645 23.841,358.697 24.208 C 358.747 24.560,358.840 24.586,360.208 24.631 C 361.530 24.675,361.667 24.710,361.667 25.006 C 361.667 25.282,361.783 25.333,362.405 25.333 C 363.044 25.333,363.151 25.384,363.197 25.708 C 363.242 26.028,363.366 26.091,364.042 26.134 C 364.756 26.180,364.833 26.225,364.833 26.592 C 364.833 26.964,364.899 27.000,365.583 27.000 C 366.222 27.000,366.333 27.049,366.333 27.333 C 366.333 27.556,366.444 27.667,366.667 27.667 C 366.888 27.667,367.000 27.778,367.000 27.997 C 367.000 28.207,367.146 28.364,367.401 28.428 C 367.621 28.483,367.839 28.672,367.885 28.847 C 367.950 29.096,368.119 29.167,368.651 29.167 C 369.268 29.167,369.333 29.207,369.333 29.583 C 369.333 29.889,369.422 30.000,369.667 30.000 C 369.889 30.000,370.000 30.111,370.000 30.333 C 370.000 30.578,370.111 30.667,370.417 30.667 C 370.766 30.667,370.833 30.745,370.833 31.153 C 370.833 31.856,370.992 32.167,371.351 32.167 C 371.577 32.167,371.667 32.286,371.667 32.583 C 371.667 32.885,371.756 33.000,371.990 33.000 C 372.243 33.000,372.324 33.135,372.365 33.625 C 372.403 34.084,372.516 34.294,372.792 34.415 C 373.096 34.548,373.167 34.713,373.167 35.290 C 373.167 35.889,373.219 36.000,373.500 36.000 C 373.784 36.000,373.833 36.111,373.833 36.750 C 373.833 37.439,373.867 37.500,374.250 37.500 C 374.664 37.500,374.667 37.511,374.667 39.000 C 374.667 40.389,374.691 40.500,375.000 40.500 C 375.325 40.500,375.333 40.611,375.333 45.147 C 375.333 49.654,375.323 49.797,375.000 49.882 C 374.699 49.960,374.667 50.109,374.667 51.401 C 374.667 52.695,374.636 52.833,374.351 52.833 C 373.954 52.833,373.833 53.146,373.833 54.180 C 373.833 54.889,373.788 55.000,373.500 55.000 C 373.217 55.000,373.167 55.111,373.167 55.738 C 373.167 56.377,373.116 56.484,372.792 56.530 C 372.480 56.574,372.408 56.703,372.365 57.292 C 372.324 57.864,372.252 58.000,371.990 58.000 C 371.756 58.000,371.667 58.115,371.667 58.417 C 371.667 58.750,371.583 58.833,371.250 58.833 C 370.953 58.833,370.833 58.924,370.833 59.147 C 370.833 59.325,370.683 59.500,370.488 59.552 C 370.297 59.601,370.102 59.795,370.053 59.982 C 370.004 60.169,369.822 60.367,369.649 60.422 C 369.475 60.477,369.333 60.667,369.333 60.845 C 369.333 61.060,369.218 61.167,368.984 61.167 C 368.776 61.167,368.600 61.301,368.548 61.500 C 368.500 61.684,368.321 61.833,368.147 61.833 C 367.924 61.833,367.833 61.953,367.833 62.250 C 367.833 62.583,367.750 62.667,367.417 62.667 C 367.111 62.667,367.000 62.756,367.000 63.000 C 367.000 63.284,366.889 63.333,366.250 63.333 C 365.561 63.333,365.500 63.367,365.500 63.750 C 365.500 64.127,365.434 64.167,364.818 64.167 C 364.282 64.167,364.117 64.236,364.051 64.491 C 363.987 64.735,363.794 64.828,363.275 64.866 C 362.703 64.908,362.574 64.982,362.530 65.292 C 362.481 65.639,362.393 65.667,361.322 65.667 C 360.278 65.667,360.167 65.699,360.167 66.000 C 360.167 66.303,360.056 66.333,358.930 66.333 C 357.477 66.333,357.167 66.425,357.167 66.851 C 357.167 67.156,356.927 67.167,350.333 67.167 L 343.500 67.167 343.500 45.167 L 343.500 23.167 348.833 23.167 C 354.056 23.167,354.167 23.174,354.167 23.500 M242.175 38.287 C 242.440 38.357,242.500 38.519,242.500 39.172 C 242.500 40.187,242.622 40.500,243.018 40.500 C 243.295 40.500,243.333 40.632,243.333 41.599 C 243.333 42.558,243.376 42.709,243.667 42.785 C 243.914 42.850,244.000 43.012,244.000 43.415 C 244.000 44.431,244.187 45.000,244.521 45.000 C 244.785 45.000,244.833 45.130,244.833 45.833 C 244.833 46.611,244.861 46.667,245.250 46.667 C 245.652 46.667,245.667 46.706,245.667 47.750 C 245.667 48.714,245.703 48.833,245.992 48.833 C 246.279 48.833,246.324 48.970,246.367 49.958 C 246.412 50.981,246.451 51.088,246.792 51.137 C 247.136 51.186,247.167 51.277,247.167 52.262 C 247.167 53.222,247.201 53.333,247.500 53.333 C 247.789 53.333,247.833 53.444,247.833 54.167 L 247.833 55.000 241.333 55.000 L 234.833 55.000 234.833 54.595 C 234.833 54.302,234.937 54.175,235.208 54.137 C 235.543 54.089,235.589 53.976,235.632 53.078 C 235.673 52.226,235.737 52.048,236.049 51.912 C 236.362 51.774,236.424 51.597,236.466 50.726 C 236.507 49.873,236.569 49.687,236.841 49.616 C 237.122 49.543,237.167 49.383,237.167 48.444 C 237.167 47.443,237.197 47.352,237.542 47.303 C 237.878 47.256,237.922 47.143,237.966 46.226 C 238.007 45.373,238.069 45.187,238.341 45.116 C 238.623 45.043,238.667 44.883,238.667 43.932 C 238.667 42.871,238.681 42.833,239.083 42.833 C 239.465 42.833,239.500 42.771,239.500 42.095 C 239.500 41.502,239.566 41.335,239.833 41.250 C 240.121 41.159,240.167 40.998,240.167 40.072 C 240.167 39.040,240.182 39.000,240.583 39.000 C 240.985 39.000,241.000 38.961,241.000 37.917 C 241.000 36.944,241.034 36.833,241.333 36.833 C 241.578 36.833,241.675 36.711,241.699 36.375 C 241.717 36.123,241.758 36.431,241.791 37.059 C 241.840 38.025,241.900 38.215,242.175 38.287 M51.333 38.429 C 51.333 38.606,51.849 39.040,51.945 38.944 C 52.113 38.776,51.854 38.333,51.589 38.333 C 51.448 38.333,51.333 38.376,51.333 38.429 M30.054 51.958 C 33.888 51.983,40.113 51.983,43.887 51.958 C 47.662 51.933,44.525 51.913,36.917 51.913 C 29.308 51.913,26.220 51.933,30.054 51.958 M22.929 80.874 C 23.035 81.206,23.018 81.222,22.774 81.020 C 22.534 80.821,22.500 80.837,22.500 81.146 C 22.500 81.543,22.668 81.598,22.967 81.300 C 23.215 81.052,23.230 80.500,22.989 80.500 C 22.880 80.500,22.857 80.646,22.929 80.874 M9.512 81.042 C 9.505 81.294,9.575 81.500,9.667 81.500 C 9.862 81.500,9.862 81.372,9.667 80.917 C 9.540 80.621,9.522 80.636,9.512 81.042 M118.626 81.083 C 118.582 81.313,118.611 81.500,118.690 81.500 C 118.769 81.500,118.833 81.313,118.833 81.083 C 118.833 80.854,118.805 80.667,118.769 80.667 C 118.734 80.667,118.670 80.854,118.626 81.083 " stroke="none" fill="#fcfcfc" fill-rule="evenodd"></path><path id="path1" d="M9.776 9.804 C 9.434 10.182,9.341 79.994,9.681 80.970 C 9.858 81.478,10.126 81.586,10.372 81.250 C 10.448 81.147,10.496 81.165,10.497 81.295 C 10.499 81.463,11.750 81.505,16.500 81.496 C 22.458 81.484,22.500 81.482,22.500 81.138 C 22.500 80.836,22.535 80.821,22.774 81.020 C 23.018 81.222,23.035 81.206,22.929 80.874 C 22.855 80.640,22.880 80.500,22.996 80.500 C 23.098 80.500,23.169 80.406,23.154 80.292 C 23.139 80.177,23.136 73.724,23.147 65.952 L 23.167 51.822 37.491 51.869 C 51.696 51.916,51.817 51.914,51.904 51.583 C 51.952 51.400,51.991 48.526,51.991 45.196 L 51.991 39.143 51.575 38.727 C 51.345 38.497,50.993 38.324,50.788 38.340 C 50.584 38.357,44.285 38.362,36.792 38.352 L 23.167 38.333 23.167 30.334 L 23.167 22.335 43.208 22.292 L 63.250 22.250 63.250 15.917 L 63.250 9.583 36.651 9.541 C 11.049 9.501,10.042 9.510,9.776 9.804 M85.706 9.639 C 85.542 9.743,85.505 11.131,85.540 16.011 L 85.583 22.250 95.792 22.293 L 106.000 22.336 106.000 51.817 C 106.000 78.546,106.025 81.307,106.264 81.399 C 106.820 81.612,118.473 81.511,118.615 81.292 C 118.689 81.177,118.787 67.921,118.833 51.833 C 118.896 29.706,118.964 22.583,119.111 22.583 C 119.218 22.583,119.362 22.527,119.431 22.458 C 119.499 22.390,124.024 22.332,129.486 22.331 C 135.091 22.329,139.318 22.266,139.191 22.185 C 139.033 22.085,139.020 22.007,139.149 21.928 C 139.397 21.774,139.408 10.284,139.161 9.822 C 138.978 9.481,86.241 9.299,85.706 9.639 M68.183 27.230 C 67.922 27.545,67.925 80.959,68.186 81.273 C 68.382 81.509,79.975 81.627,80.569 81.399 C 80.837 81.296,80.996 27.951,80.730 27.258 C 80.592 26.899,68.480 26.872,68.183 27.230 " stroke="none" fill="#ececec" fill-rule="evenodd"></path><path id="path2" d="" stroke="none" fill="#f8100f4" fill-rule="evenodd"></path><path id="path3" d="" stroke="none" fill="#f8100f4" fill-rule="evenodd"></path><path id="path4" d="" stroke="none" fill="#f8100f4" fill-rule="evenodd"></path></g></svg>